
        <svg xmlns="http://www.w3.org/2000/svg" xmlns:xlink="http://www.w3.org/1999/xlink" version="1.1" width="3181.8181818181824" height="1100" viewBox="0 0 3181.8181818181824 1100">
			
			<g transform="scale(9.090909090909092) translate(10, 10)">
				<defs id="SvgjsDefs2433"/><g id="SvgjsG2434" featureKey="symbolGroupContainer" transform="matrix(1,0,0,1,0,0)" fill="#fff"><rect xmlns="http://www.w3.org/2000/svg" width="110" height="101" rx="10" ry="10"/></g><g id="SvgjsG2435" featureKey="mugSzh-0" transform="matrix(0.9148580475548618,0,0,0.9148580475548618,9.257352385430858,4.839886330754194)" fill="#000000"><path xmlns="http://www.w3.org/2000/svg" d="M88.199,81.967l-6.82-20.398c1.92-4.191,2.894-8.627,2.894-13.19c0-17.539-14.269-31.808-31.808-31.808  c-13.102,0-25.04,8.245-29.708,20.517c-0.158,0.417-0.052,0.888,0.271,1.196c0.324,0.309,0.799,0.394,1.206,0.217  c2.515-1.084,5.18-1.634,7.923-1.634c11.048,0,20.037,8.989,20.037,20.037c0,8.176-4.898,15.457-12.478,18.552  c-0.412,0.17-0.684,0.568-0.69,1.014c-0.005,0.444,0.256,0.851,0.664,1.029c4.062,1.784,8.36,2.689,12.775,2.689  c5.035,0,10.045-1.214,14.521-3.513l19.806,6.696c0.117,0.039,0.237,0.059,0.355,0.059c0.289,0,0.572-0.113,0.783-0.324  C88.229,82.808,88.334,82.367,88.199,81.967z M67.247,74.42c-0.115-0.039-0.235-0.058-0.354-0.058c-0.181,0-0.36,0.043-0.522,0.13  c-7.146,3.812-15.825,4.503-23.449,1.888c7.057-3.888,11.491-11.277,11.491-19.477c0-12.272-9.984-22.256-22.256-22.256  c-2.163,0-4.283,0.308-6.33,0.917C30.713,25.436,41.12,18.79,52.465,18.79c16.315,0,29.589,13.274,29.589,29.589  c0,4.379-0.965,8.634-2.869,12.647c-0.123,0.259-0.141,0.555-0.05,0.827l6.252,18.7L67.247,74.42z M21.189,53.823  c-1.905,0-3.455,1.55-3.455,3.456c0,1.905,1.55,3.455,3.455,3.455c1.906,0,3.456-1.55,3.456-3.455  C24.645,55.373,23.095,53.823,21.189,53.823z M21.189,58.516c-0.681,0-1.235-0.555-1.235-1.236c0-0.683,0.554-1.237,1.235-1.237  c0.682,0,1.237,0.555,1.237,1.237C22.426,57.961,21.871,58.516,21.189,58.516z M29.896,53.823c-1.906,0-3.457,1.55-3.457,3.456  c0,1.905,1.551,3.455,3.457,3.455c1.905,0,3.455-1.55,3.455-3.455C33.351,55.373,31.802,53.823,29.896,53.823z M29.896,58.516  c-0.683,0-1.238-0.555-1.238-1.236c0-0.683,0.556-1.237,1.238-1.237c0.681,0,1.235,0.555,1.235,1.237  C31.132,57.961,30.578,58.516,29.896,58.516z M38.603,53.823c-1.906,0-3.457,1.55-3.457,3.456c0,1.905,1.551,3.455,3.457,3.455  c1.906,0,3.456-1.55,3.456-3.455C42.059,55.373,40.508,53.823,38.603,53.823z M38.603,58.516c-0.683,0-1.238-0.555-1.238-1.236  c0-0.683,0.555-1.237,1.238-1.237c0.682,0,1.237,0.555,1.237,1.237C39.839,57.961,39.285,58.516,38.603,58.516z M47.971,57.429  c0-9.53-7.754-17.284-17.285-17.284S13.4,47.899,13.4,57.429c0,2.407,0.498,4.751,1.482,6.972l-3.078,8.839  c-0.13,0.374-0.051,0.789,0.207,1.088c0.212,0.248,0.521,0.387,0.841,0.387c0.067,0,0.135-0.005,0.202-0.019l9.858-1.829  c2.401,1.211,5.08,1.848,7.773,1.848C40.217,74.714,47.971,66.96,47.971,57.429z M30.686,72.495c-2.462,0-4.91-0.611-7.079-1.769  c-0.162-0.085-0.341-0.13-0.522-0.13c-0.067,0-0.135,0.006-0.202,0.019l-8.354,1.551l2.597-7.457  c0.095-0.275,0.08-0.577-0.045-0.841c-0.969-2.046-1.461-4.211-1.461-6.439c0-8.306,6.759-15.065,15.066-15.065  c8.307,0,15.066,6.759,15.066,15.065C45.751,65.736,38.993,72.495,30.686,72.495z"/></g><g id="SvgjsG2436" featureKey="PPkF4s-0" transform="matrix(2.75557969042406,0,0,2.75557969042406,129.39377173228755,10.552770795379518)" fill="#fff"><path d="M11.04 14.76 q0 1.7 -0.71 2.94 t-1.99 1.91 t-2.98 0.67 q-1.76 0 -3.1 -0.84 t-2.04 -2.36 l2.88 -1.22 q0.32 0.68 0.87 1.15 t1.39 0.47 q1.46 0 1.98 -0.82 t0.52 -1.9 l0 -9.36 l3.18 0 l0 9.36 z M22.380000000000003 18.9 q-0.38 0.52 -1.31 0.93 t-2.03 0.41 q-1.7 0 -2.95 -0.76 t-1.91 -2.07 t-0.66 -2.91 t0.66 -2.91 t1.91 -2.07 t2.95 -0.76 q1.14 0 2.01 0.39 t1.33 0.99 l0 -1.14 l2.96 0 l0 11 l-2.96 0 l0 -1.1 z M21.68 12.25 q-0.82 -0.87 -2.2 -0.87 q-1.4 0 -2.21 0.87 t-0.81 2.25 q0 1.34 0.83 2.22 t2.19 0.88 q1.4 0 2.21 -0.83 t0.81 -2.27 q0 -1.38 -0.82 -2.25 z M37.510000000000005 10.02 q1.03 1.22 1.03 3.48 l0 6.5 l-3.06 0 l0 -6.5 q0 -2.22 -2.12 -2.22 q-0.82 0 -1.48 0.65 t-0.62 2.25 l0 5.82 l-2.98 0 l0 -11 l2.98 0 l0 0.98 q0.54 -0.54 1.36 -0.86 t1.58 -0.32 q2.28 0 3.31 1.22 z M51.29 22.77 q-1.47 1.37 -4.09 1.37 q-3.14 0 -5.26 -1.66 l1.46 -2.12 q0.68 0.54 1.61 0.88 t1.97 0.34 q2.82 0 2.82 -2.56 l0 -0.18 q-1.2 0.98 -3.08 0.98 q-1.74 0 -3.06 -0.73 t-2.02 -1.99 t-0.7 -2.78 q0 -1.54 0.7 -2.79 t2.01 -1.99 t3.07 -0.74 q1.88 0 3.08 0.98 l0 -0.78 l2.96 0 l0 10.02 q0 2.38 -1.47 3.75 z M48.43 16.91 q0.69 -0.39 1.09 -1.08 t0.4 -1.51 q0 -0.84 -0.4 -1.52 t-1.09 -1.07 t-1.53 -0.39 q-1.36 0 -2.19 0.85 t-0.83 2.13 q0 1.32 0.81 2.15 t2.21 0.83 q0.84 0 1.53 -0.39 z M55.739999999999995 4.880000000000001 l3 0 l0 15.12 l-3 0 l0 -15.12 z M64.41 19.74 q-1.37 -0.54 -2.35 -1.83 t-0.98 -3.37 t0.99 -3.36 t2.37 -1.82 t2.62 -0.54 q1.44 0 2.74 0.64 t2.13 1.88 t0.87 2.94 q0 0.52 -0.02 0.9 t-0.04 0.48 l-8.68 0 q0.24 1.16 1.2 1.58 t1.8 0.42 q1.08 0 1.72 -0.39 t1.1 -0.89 l2.32 1.34 q-1.88 2.56 -5.14 2.56 q-1.28 0 -2.65 -0.54 z M65.02 12.05 q-0.78 0.61 -0.88 1.49 l5.5 0 q-0.06 -0.52 -0.4 -1 t-0.91 -0.79 t-1.29 -0.31 q-1.24 0 -2.02 0.61 z"/></g>
			</g>
		</svg>
	